<?xml version="1.0" encoding="utf-8"?>
<!-- Generator: Adobe Illustrator 25.2.0, SVG Export Plug-In . SVG Version: 6.00 Build 0)  -->
<svg version="1.1" id="Layer_1" xmlns="http://www.w3.org/2000/svg" xmlns:xlink="http://www.w3.org/1999/xlink" x="0px" y="0px"
	 viewBox="0 0 100 100" style="enable-background:new 0 0 100 100;" xml:space="preserve">
<style type="text/css">
	.st0{fill:url(#SVGID_1_);}
	.st1{fill:#513200;}
</style>
<linearGradient id="SVGID_1_" gradientUnits="userSpaceOnUse" x1="14.4386" y1="85.6614" x2="85.3614" y2="14.7386">
	<stop  offset="0" style="stop-color:#A36400"/>
	<stop  offset="1" style="stop-color:#C15400"/>
</linearGradient>
<ellipse class="st0" cx="49.9" cy="50.2" rx="50.1" ry="50.2"/>
<g>
	<g>
		<path class="st1" d="M42.4,74c-2.4-1.1-4.3-2.8-5.7-4.9c-1.4-2.2-2.2-4.7-2.3-7.7h9.9c0.1,1.1,0.4,2,0.9,2.7
			c0.5,0.7,1.1,1.3,1.8,1.7c0.7,0.4,1.6,0.6,2.6,0.6c1.8,0,3.2-0.5,4.2-1.5s1.5-2.5,1.5-4.3v-1.2c0-1.9-0.4-3.4-1.2-4.5
			s-2-1.6-3.5-1.6h-4.3V44h4.3c1.2,0,2.2-0.5,2.8-1.4c0.7-0.9,1-2.2,1-3.9v-0.9c0-1.6-0.4-2.8-1.1-3.6c-0.7-0.9-1.8-1.3-3.1-1.3
			c-0.9,0-1.7,0.2-2.4,0.7c-0.7,0.4-1.3,1.1-1.8,1.9s-0.8,1.9-1.1,3.1H35c0.3-3.1,1.1-5.8,2.5-8.1s3.2-4,5.5-5.2
			c2.2-1.2,4.7-1.8,7.5-1.8c4.5,0,8,1.2,10.5,3.5s3.7,5.6,3.7,9.8v1.5c0,2.4-0.6,4.4-1.8,6.2s-2.9,3.1-5.1,3.9
			c2.5,0.6,4.4,1.9,5.7,3.9c1.3,2,2,4.6,2,7.7v1.5c0,3-0.6,5.5-1.8,7.6s-2.9,3.7-5.1,4.8c-2.2,1.1-4.9,1.7-8.1,1.7
			C47.6,75.6,44.9,75.1,42.4,74z"/>
	</g>
</g>
<image style="overflow:visible;" width="1185" height="585" xlink:href="chart3.PNG"  transform="matrix(0.1981 0 0 0.239 129.6107 -20.3584)">
</image>
</svg>
