<?xml version="1.0" encoding="utf-8"?>
<!-- Generator: Adobe Illustrator 25.2.0, SVG Export Plug-In . SVG Version: 6.00 Build 0)  -->
<svg version="1.1" id="Layer_1" xmlns="http://www.w3.org/2000/svg" xmlns:xlink="http://www.w3.org/1999/xlink" x="0px" y="0px"
	 viewBox="0 0 100 100" style="enable-background:new 0 0 100 100;" xml:space="preserve">
<style type="text/css">
	.st0{fill:url(#SVGID_1_);}
	.st1{fill:#565656;}
</style>
<linearGradient id="SVGID_1_" gradientUnits="userSpaceOnUse" x1="14.4386" y1="85.6614" x2="85.3614" y2="14.7386">
	<stop  offset="0" style="stop-color:#C1C1C1"/>
	<stop  offset="1" style="stop-color:#DBDBDB"/>
</linearGradient>
<ellipse class="st0" cx="49.9" cy="50.2" rx="50.1" ry="50.2"/>
<g>
	<g>
		<path class="st1" d="M35.7,66.4l17.5-23.1c0.8-1,1.4-2.1,1.8-3.2s0.6-2.1,0.6-3V37c0-1.4-0.4-2.4-1.3-3.2
			c-0.9-0.8-2.2-1.1-3.8-1.1s-2.9,0.5-3.9,1.6c-1,1-1.6,2.5-1.8,4.4l0,0h-9.9l0,0c0.2-3.2,1-5.9,2.3-8.2s3.1-4,5.3-5.3
			c2.2-1.2,4.8-1.8,7.8-1.8c3.2,0,5.9,0.5,8.1,1.6c2.3,1,4,2.6,5.2,4.6s1.8,4.4,1.8,7.2l0,0c0,2.3-0.4,4.6-1.2,6.9
			c-0.8,2.3-1.9,4.4-3.4,6.2L48.4,65.8h17.4v9.3H35.7V66.4z"/>
	</g>
</g>
<image style="overflow:visible;" width="1185" height="585" xlink:href="chart3.PNG"  transform="matrix(0.1981 0 0 0.239 120.6107 -25.9084)">
</image>
</svg>
